#!OML:ASF H:\BabyWalks\Project 1\Capture day 1\Session 1\baby.ASF
:FULLY-SPECIFIED
:DEGREES
667
root 18.4163 17.6848 -0.256112 -147.749 86.588 -158.426
lowerback 21.7938 -2.9879 -4.51878
upperback 3.32213 -4.69618 0.0974586
thorax -8.12473 -2.01486 3.97512
lowerneck -2.9993 1.46092 4.96168
upperneck -9.78927 2.01415 -1.53385
head -2.52995 0.957171 -1.36947
rclavicle 2.8625e-014 7.95139e-016
rhumerus -66.6767 21.2456 -88.6596
rradius 54.667
rwrist -2.82154
rhand -0.926682 -18.8166
rfingers 7.12502
rthumb 24.7025 -47.2419
lclavicle 2.8625e-014 7.95139e-016
lhumerus -40.1143 -11.1896 74.6828
lradius 83.7535
lwrist -1.37381
lhand -7.24669 2.54345
lfingers 7.12502
lthumb 18.6336 31.671
rfemur -35.1888 7.51254 15.5548
rtibia 30.5011
rfoot -19.0054 1.76012
rtoes -14.1625
lfemur -0.697978 -6.71166 -12.7108
ltibia 22.4289
lfoot -21.9281 -11.5411
ltoes -13.7499
668
root 18.6446 17.6641 -0.223963 -156.216 86.1087 -166.707
lowerback 21.6322 -3.13099 -4.41215
upperback 3.24922 -4.83563 0.349326
thorax -8.09188 -2.08451 4.21854
lowerneck -3.04272 1.44147 5.37032
upperneck -9.33593 1.8859 -2.62576
head -2.36842 0.904603 -1.7897
rclavicle -3.97569e-015 1.90833e-014
rhumerus -66.9798 21.3357 -88.4179
rradius 54.2999
rwrist -2.7521
rhand -0.561078 -18.6565
rfingers 7.12502
rthumb 25.0528 -47.0333
lclavicle -3.97569e-015 1.90833e-014
lhumerus -40.5899 -11.0224 75.2438
lradius 83.599
lwrist -0.97851
lhand -6.88615 2.68472
lfingers 7.12502
lthumb 18.9803 31.7787
rfemur -34.9156 7.44174 15.1156
rtibia 30.5646
rfoot -18.5149 0.701136
rtoes -14.7208
lfemur -0.386807 -6.75588 -12.7793
ltibia 23.3016
lfoot -21.2996 -12.4873
ltoes -14.9091
669
root 18.8718 17.6362 -0.190718 -163.079 85.544 -173.342
lowerback 21.4831 -3.24269 -4.31571
upperback 3.18871 -4.9353 0.60419
thorax -8.05382 -2.13463 4.46006
lowerneck -3.06053 1.39558 5.80806
upperneck -8.91142 1.73007 -3.77898
head -2.22599 0.837291 -2.24234
rclavicle -2.18663e-014 -7.95139e-016
rhumerus -67.1949 21.3303 -88.1338
rradius 53.8646
rwrist -2.61696
rhand -0.183821 -18.4585
rfingers 7.12502
rthumb 25.4143 -46.7844
lclavicle -2.18663e-014 -7.95139e-016
lhumerus -41.0836 -10.8636 75.8874
lradius 83.2378
lwrist -0.700701
lhand -6.51194 2.88579
lfingers 7.12502
lthumb 19.3402 31.944
rfemur -34.5184 7.21236 14.7703
rtibia 30.9217
rfoot -17.959 -0.219029
rtoes -15.3508
lfemur -0.308864 -6.73378 -12.8162
ltibia 24.6716
lfoot -20.6763 -13.576
ltoes -16.163
670
root 19.0977 17.6032 -0.156246 -168.504 84.915 -178.494
lowerback 21.3547 -3.32208 -4.22677
upperback 3.1419 -4.99319 0.864209
thorax -8.01406 -2.16409 4.70091
lowerneck -3.04032 1.32026 6.26178
upperneck -8.53828 1.54502 -4.97151
head -2.1125 0.754891 -2.72096
rclavicle -1.72943e-014 -7.95139e-015
rhumerus -67.3113 21.2238 -87.7983
rradius 53.3543
rwrist -2.43548
rhand 0.19079 -18.23
rfingers 7.12502
rthumb 25.7731 -46.5044
lclavicle -1.72943e-014 -7.95139e-015
lhumerus -41.5961 -10.7153 76.6095
lradius 82.6698
lwrist -0.576645
lhand -6.16582 3.13287
lfingers 7.12502
lthumb 19.6729 32.1574
rfemur -34.0213 6.83629 14.5306
rtibia 31.5666
rfoot -17.4593 -0.847344
rtoes -15.9166
lfemur -0.450794 -6.67854 -12.8129
ltibia 26.5017
lfoot -19.9853 -14.7626
ltoes -17.3519
671
root 19.3218 17.5663 -0.120784 -172.679 84.2479 -182.353
lowerback 21.2511 -3.36608 -4.13218
upperback 3.11285 -5.002 1.12895
thorax -7.97277 -2.16965 4.93177
lowerneck -2.97001 1.21345 6.72524
upperneck -8.24056 1.32892 -6.18172
head -2.03862 0.657236 -3.21955
rclavicle 1.03964e-013 -3.61788e-014
rhumerus -67.3168 21.0038 -87.401
rradius 52.7657
rwrist -2.21829
rhand 0.566097 -17.9858
rfingers 7.12502
rthumb 26.1325 -46.2076
lclavicle 1.03964e-013 -3.61788e-014
lhumerus -42.1322 -10.5836 77.4019
lradius 81.9069
lwrist -0.635546
lhand -5.87121 3.4069
lfingers 7.12502
lthumb 19.9562 32.4022
rfemur -33.4528 6.33523 14.4052
rtibia 32.4726
rfoot -17.0493 -1.10923
rtoes -16.1843
lfemur -0.790259 -6.62154 -12.7621
ltibia 28.7359
lfoot -19.1934 -15.9623
ltoes -18.3951
672
root 19.5437 17.5269 -0.0842336 -175.654 83.5583 -184.969
lowerback 21.1776 -3.38027 -4.00702
upperback 3.10345 -4.96255 1.40542
thorax -7.93274 -2.15208 5.14705
lowerneck -2.83459 1.07354 7.18304
upperneck -8.04212 1.07985 -7.37862
head -2.01613 0.5446 -3.72609
rclavicle 2.69353e-014 -9.93923e-015
rhumerus -67.1933 20.6812 -86.9411
rradius 52.0903
rwrist -1.97541
rhand 0.946584 -17.7442
rfingers 7.12502
rthumb 26.4967 -45.9115
lclavicle 2.69353e-014 -9.93923e-015
lhumerus -42.6955 -10.4537 78.2486
lradius 80.9591
lwrist -0.905256
lhand -5.64796 3.68766
lfingers 7.12502
lthumb 20.1707 32.6605
rfemur -32.8351 5.76165 14.4075
rtibia 33.5829
rfoot -16.7359 -1.19627
rtoes -15.9524
lfemur -1.31518 -6.59124 -12.6354
ltibia 31.3127
lfoot -18.2838 -17.1258
ltoes -19.1373
673
root 19.7631 17.4862 -0.0470678 -177.358 82.8714 -186.276
lowerback 21.133 -3.36807 -3.80615
upperback 3.11784 -4.86756 1.70395
thorax -7.89297 -2.1089 5.33043
lowerneck -2.62786 0.902348 7.63201
upperneck -7.95896 0.79829 -8.54207
head -2.05299 0.418404 -4.23322
rclavicle 2.48978e-014 1.78906e-015
rhumerus -66.9246 20.2531 -86.4116
rradius 51.3216
rwrist -1.69309
rhand 1.32612 -17.5145
rfingers 7.12502
rthumb 26.8599 -45.6265
lclavicle 2.48978e-014 1.78906e-015
lhumerus -43.2898 -10.321 79.1343
lradius 79.8462
lwrist -1.36278
lhand -5.50444 3.94923
lfingers 7.12502
lthumb 20.3087 32.9074
rfemur -32.1749 5.19184 14.5646
rtibia 34.8157
rfoot -16.5953 -1.16531
rtoes -15.2271
lfemur -2.009 -6.59975 -12.3888
ltibia 34.1711
lfoot -17.2682 -18.2397
ltoes -19.3957
